<svg width="24" height="24" viewBox="0 0 24 24" fill="none" xmlns="http://www.w3.org/2000/svg">
<mask id="path-1-inside-1_2639_1491" fill="white">
<path fill-rule="evenodd" clip-rule="evenodd" d="M12 24C18.6274 24 24 18.6274 24 12C24 5.37258 18.6274 0 12 0C5.37258 0 0 5.37258 0 12C0 18.6274 5.37258 24 12 24ZM17.7012 10.3069C18.0917 9.9164 18.0917 9.28324 17.7012 8.89271C17.3107 8.50218 16.6775 8.50217 16.287 8.89269L10.8779 14.3016L8.07014 11.4941C7.67959 11.1036 7.04643 11.1036 6.65592 11.4942C6.26541 11.8847 6.26544 12.5179 6.65598 12.9084L9.46375 15.7159C10.2448 16.4969 11.5111 16.4969 12.2921 15.7159L17.7012 10.3069Z"/>
</mask>
<path fill-rule="evenodd" clip-rule="evenodd" d="M12 24C18.6274 24 24 18.6274 24 12C24 5.37258 18.6274 0 12 0C5.37258 0 0 5.37258 0 12C0 18.6274 5.37258 24 12 24ZM17.7012 10.3069C18.0917 9.9164 18.0917 9.28324 17.7012 8.89271C17.3107 8.50218 16.6775 8.50217 16.287 8.89269L10.8779 14.3016L8.07014 11.4941C7.67959 11.1036 7.04643 11.1036 6.65592 11.4942C6.26541 11.8847 6.26544 12.5179 6.65598 12.9084L9.46375 15.7159C10.2448 16.4969 11.5111 16.4969 12.2921 15.7159L17.7012 10.3069Z" fill="#F6F1E2"/>
<path d="M17.7012 8.89271L15.5798 11.014L15.5799 11.014L17.7012 8.89271ZM17.7012 10.3069L19.8225 12.4283L19.8225 12.4283L17.7012 10.3069ZM16.287 8.89269L18.4083 11.014L18.4083 11.014L16.287 8.89269ZM10.8779 14.3016L8.75668 16.423L10.878 18.5441L12.9992 16.423L10.8779 14.3016ZM8.07014 11.4941L5.94891 13.6155L5.94891 13.6155L8.07014 11.4941ZM6.65592 11.4942L4.53451 9.37293L4.53451 9.37293L6.65592 11.4942ZM6.65598 12.9084L4.53475 15.0298L4.53476 15.0298L6.65598 12.9084ZM9.46375 15.7159L11.585 13.5945L11.585 13.5945L9.46375 15.7159ZM12.2921 15.7159L14.4134 17.8372L14.4134 17.8372L12.2921 15.7159ZM21 12C21 16.9706 16.9706 21 12 21V27C20.2843 27 27 20.2843 27 12H21ZM12 3C16.9706 3 21 7.02944 21 12H27C27 3.71573 20.2843 -3 12 -3V3ZM3 12C3 7.02944 7.02944 3 12 3V-3C3.71573 -3 -3 3.71573 -3 12H3ZM12 21C7.02944 21 3 16.9706 3 12H-3C-3 20.2843 3.71573 27 12 27V21ZM15.5799 11.014C14.7988 10.2329 14.7988 8.96661 15.5799 8.18557L19.8225 12.4283C21.3846 10.8662 21.3846 8.33354 19.8225 6.77141L15.5799 11.014ZM18.4083 11.014C17.6272 11.7951 16.3609 11.7951 15.5798 11.014L19.8226 6.77142C18.2605 5.2093 15.7278 5.20926 14.1657 6.77134L18.4083 11.014ZM12.9992 16.423L18.4083 11.014L14.1657 6.77134L8.75661 12.1803L12.9992 16.423ZM5.94891 13.6155L8.75668 16.423L12.9991 12.1802L10.1914 9.37269L5.94891 13.6155ZM8.77733 13.6154C7.99632 14.3965 6.72999 14.3965 5.94891 13.6155L10.1914 9.37269C8.6292 7.81066 6.09654 7.81077 4.53451 9.37293L8.77733 13.6154ZM8.77721 10.787C9.55829 11.568 9.55835 12.8343 8.77734 13.6154L4.53451 9.37293C2.97248 10.9351 2.97259 13.4678 4.53475 15.0298L8.77721 10.787ZM11.585 13.5945L8.77721 10.787L4.53476 15.0298L7.34252 17.8373L11.585 13.5945ZM10.1708 13.5945C10.5613 13.204 11.1945 13.204 11.585 13.5945L7.34252 17.8373C9.29515 19.7898 12.4608 19.7897 14.4134 17.8372L10.1708 13.5945ZM15.5799 8.18557L10.1708 13.5945L14.4134 17.8372L19.8225 12.4283L15.5799 8.18557Z" fill="#F6F1E2" mask="url(#path-1-inside-1_2639_1491)"/>
</svg>
