<svg width="137" height="681" viewBox="0 0 137 681" fill="none" xmlns="http://www.w3.org/2000/svg">
<path d="M136.2 612.729C136.2 631.39 129.601 647.434 116.402 660.86C102.975 674.287 86.8177 681 67.9295 681C49.2688 681 33.339 674.287 20.14 660.86C6.71345 647.434 0.000171895 631.39 0.000174342 612.729C0.000176789 594.069 6.71346 578.025 20.14 564.598C33.339 551.172 49.2689 544.459 67.9295 544.459C80.4458 544.459 91.938 547.645 102.406 554.016C112.647 560.161 120.839 568.353 126.984 578.594C133.128 588.835 136.2 600.213 136.2 612.729Z" fill="#5B4B34"/>
<path d="M136.2 340.5C136.2 359.161 129.601 375.204 116.402 388.631C102.975 402.057 86.8177 408.771 67.9295 408.771C49.2689 408.771 33.339 402.057 20.14 388.631C6.71348 375.204 0.000209812 359.161 0.000212259 340.5C0.000214706 321.839 6.7135 305.796 20.1401 292.369C33.3391 278.943 49.2689 272.229 67.9295 272.229C80.4458 272.229 91.9381 275.415 102.406 281.787C112.647 287.932 120.839 296.124 126.984 306.365C133.128 316.605 136.2 327.984 136.2 340.5Z" fill="#5B4B34"/>
<path d="M136.2 68.2707C136.2 86.9314 129.601 102.975 116.402 116.401C102.975 129.828 86.8178 136.541 67.9296 136.541C49.2689 136.541 33.3391 129.828 20.1401 116.401C6.71352 102.975 0.000233611 86.9313 0.000236058 68.2707C0.000238505 49.6101 6.71354 33.5664 20.1401 20.1399C33.3391 6.71329 49.2689 1.0658e-05 67.9296 1.31051e-05C80.4459 1.47464e-05 91.9381 3.18599 102.406 9.55792C112.647 15.7023 120.839 23.8947 126.984 34.1353C133.128 44.3759 136.2 55.7544 136.2 68.2707Z" fill="#5B4B34"/>
</svg>
