<svg width="6" height="28" viewBox="0 0 6 28" fill="none" xmlns="http://www.w3.org/2000/svg">
<path d="M9.78521e-07 2.80702C1.01206e-06 2.03977 0.271346 1.38012 0.814036 0.82807C1.36608 0.276023 2.03041 -3.39466e-08 2.80702 0C3.57427 3.35376e-08 4.22924 0.276023 4.77193 0.82807C5.32398 1.38012 5.6 2.03977 5.6 2.80702C5.6 3.57427 5.32398 4.23392 4.77193 4.78596C4.22924 5.33801 3.57427 5.61403 2.80702 5.61403C2.2924 5.61403 1.81988 5.48304 1.38947 5.22105C0.968422 4.96842 0.63158 4.63158 0.378948 4.21052C0.126317 3.78947 9.56026e-07 3.32164 9.78521e-07 2.80702Z" fill="#2B3E55"/>
<path d="M4.89261e-07 14C5.22798e-07 13.2327 0.271345 12.5731 0.814035 12.021C1.36608 11.469 2.03041 11.193 2.80702 11.193C3.57427 11.193 4.22924 11.469 4.77193 12.021C5.32398 12.5731 5.6 13.2327 5.6 14C5.6 14.7672 5.32397 15.4269 4.77193 15.9789C4.22924 16.531 3.57427 16.807 2.80702 16.807C2.2924 16.807 1.81988 16.676 1.38947 16.414C0.968421 16.1614 0.631579 15.8246 0.378948 15.4035C0.126316 14.9825 4.66766e-07 14.5146 4.89261e-07 14Z" fill="#2B3E55"/>
<path d="M0 25.193C3.35377e-08 24.4257 0.271345 23.7661 0.814035 23.214C1.36608 22.662 2.03041 22.386 2.80702 22.386C3.57427 22.386 4.22924 22.662 4.77193 23.214C5.32397 23.7661 5.6 24.4257 5.6 25.193C5.6 25.9602 5.32397 26.6199 4.77193 27.1719C4.22924 27.724 3.57427 28 2.80702 28C2.2924 28 1.81988 27.869 1.38947 27.607C0.968421 27.3544 0.631579 27.0175 0.378947 26.5965C0.126316 26.1754 -2.24946e-08 25.7076 0 25.193Z" fill="#2B3E55"/>
</svg>
